<?xml version="1.0" standalone="no"?>
<!DOCTYPE svg PUBLIC "-//W3C//DTD SVG 20010904//EN"
 "http://www.w3.org/TR/2001/REC-SVG-20010904/DTD/svg10.dtd">
<svg version="1.0" xmlns="http://www.w3.org/2000/svg"
 width="300.000000pt" height="300.000000pt" viewBox="0 0 300.000000 300.000000"
 preserveAspectRatio="xMidYMid meet">
<metadata>
Created by potrace 1.10, written by Peter Selinger 2001-2011
</metadata>
<g transform="translate(0.000000,300.000000) scale(0.100000,-0.100000)"
fill="#000000" stroke="none">
<path d="M1221 2975 c-114 -21 -285 -80 -398 -138 -354 -180 -623 -492 -747
-867 -39 -118 -66 -257 -65 -334 1 -47 1 -49 10 -21 5 17 19 75 30 130 36 177
68 271 142 417 163 323 432 568 772 703 86 34 137 49 285 80 63 13 129 29 145
34 48 15 -85 12 -174 -4z"/>
<path d="M1570 2988 c0 -6 77 -23 210 -48 95 -18 286 -83 371 -125 106 -54
253 -154 336 -230 236 -215 406 -524 458 -830 8 -49 21 -110 29 -135 l14 -45
1 56 c2 137 -63 371 -152 546 -198 389 -547 668 -972 778 -91 23 -295 46 -295
33z"/>
<path d="M1420 2766 c-5 -14 -12 -26 -14 -26 -3 0 -3 6 0 14 3 8 1 17 -4 20
-6 3 -13 -6 -16 -20 -4 -16 -17 -29 -36 -36 -35 -12 -38 -24 -10 -33 22 -7 55
18 45 34 -3 5 -1 12 5 16 5 3 10 1 10 -6 0 -6 9 -1 20 12 10 13 19 19 20 13 0
-15 50 -25 50 -11 0 7 4 7 12 -1 15 -15 28 -16 28 -2 0 5 -12 13 -27 16 -16 4
-38 14 -50 22 -21 13 -23 12 -33 -12z"/>
<path d="M1525 2780 c-11 -18 45 -62 81 -64 18 -1 30 2 28 6 -3 5 1 8 8 8 7 0
27 -17 45 -37 41 -46 43 -31 3 24 -16 22 -26 44 -22 48 4 5 -1 5 -11 2 -10 -4
-21 -7 -23 -7 -2 0 -4 -6 -4 -14 0 -9 -8 -12 -25 -8 -14 2 -25 9 -25 14 0 5
-4 7 -9 3 -5 -3 -16 4 -24 16 -10 13 -17 17 -22 9z"/>
<path d="M1722 2735 c1 -14 10 -33 19 -41 15 -14 16 -12 6 26 -12 45 -28 54
-25 15z"/>
<path d="M1290 2684 c0 -15 -10 -34 -22 -44 -13 -10 -20 -21 -16 -25 4 -4 14
0 23 9 9 8 26 23 38 32 15 11 18 18 10 21 -7 3 -13 11 -13 19 0 8 -4 14 -10
14 -5 0 -10 -12 -10 -26z"/>
<path d="M1210 2647 c-8 -30 -18 -47 -28 -47 -8 0 -12 -3 -8 -7 4 -5 13 -8 19
-8 15 0 45 28 40 37 -6 11 19 58 28 52 5 -3 9 0 9 5 0 17 -20 13 -27 -6 -6
-15 -7 -15 -13 2 -5 14 -10 7 -20 -28z"/>
<path d="M1755 2660 c-3 -6 3 -22 14 -36 12 -15 21 -21 21 -14 0 9 9 5 24 -9
14 -13 30 -20 37 -16 7 5 10 3 7 -6 -7 -18 10 -51 22 -44 15 9 -5 60 -24 60
-9 0 -20 5 -24 11 -4 5 -22 16 -39 23 -18 8 -33 18 -33 23 0 5 5 6 12 2 7 -4
8 -3 4 4 -9 15 -13 15 -21 2z"/>
<path d="M1107 2619 c-3 -12 -2 -30 3 -38 8 -14 9 -13 10 3 0 20 0 20 16 0 15
-18 15 -18 10 0 -4 10 -1 26 6 34 11 13 10 15 -3 10 -9 -4 -21 -2 -26 3 -7 7
-12 3 -16 -12z"/>
<path d="M1086 2515 c19 -29 29 -31 38 -10 4 10 -1 15 -15 15 -11 0 -17 5 -14
10 3 6 -1 10 -10 10 -14 0 -14 -2 1 -25z"/>
<path d="M1912 2508 c2 -19 14 -36 40 -55 21 -15 40 -36 44 -45 3 -10 12 -18
20 -18 9 0 14 -11 14 -35 0 -19 -1 -37 -2 -39 -2 -2 5 -12 14 -23 21 -23 38
-110 19 -99 -8 6 -10 0 -5 -18 4 -18 2 -26 -6 -26 -9 0 -7 -7 6 -21 13 -14 15
-22 7 -27 -7 -5 -9 -13 -4 -21 5 -7 11 -9 14 -4 10 16 10 136 -1 186 -9 43 -8
46 7 35 13 -11 12 -8 -2 15 -10 16 -16 36 -12 44 3 9 -3 26 -16 39 -11 12 -18
27 -15 33 4 5 -4 17 -16 25 -12 9 -18 16 -13 16 15 1 -22 21 -46 25 -12 2 -27
12 -35 22 -12 16 -13 16 -12 -9z"/>
<path d="M1019 2497 c6 -8 8 -17 4 -21 -4 -4 0 -4 9 -1 23 9 40 -3 31 -20 -11
-18 -90 -75 -105 -75 -8 0 -6 -4 4 -10 11 -7 29 -4 60 10 23 11 36 18 26 16
-32 -9 -27 7 11 35 43 31 60 52 40 48 -8 -2 -28 5 -46 14 -39 20 -49 22 -34 4z"/>
<path d="M1767 2459 c18 -23 3 -32 -19 -12 -18 16 -18 16 -12 0 3 -9 9 -17 13
-18 3 0 14 -2 24 -4 9 -2 17 3 17 10 0 7 -8 19 -17 26 -16 12 -17 12 -6 -2z"/>
<path d="M1547 2363 c3 -24 1 -49 -5 -56 -8 -9 -8 -17 0 -27 8 -12 9 -12 4 3
-7 21 9 23 18 2 3 -8 12 -12 21 -9 8 4 22 1 29 -5 12 -10 13 -8 9 9 -4 16 -2
19 11 14 9 -3 14 -9 11 -13 -2 -4 2 -8 10 -8 18 0 20 13 4 23 -8 5 -7 9 1 14
8 5 10 15 5 26 -6 18 -8 17 -16 -3 -9 -25 -34 -31 -43 -10 -4 6 -4 2 -2 -10 6
-32 -10 -29 -23 5 l-11 27 5 -30 c4 -25 4 -27 -6 -12 -6 11 -9 32 -7 47 2 16
1 27 -3 24 -4 -2 -10 4 -12 13 -3 10 -3 -1 0 -24z"/>
<path d="M933 2335 c0 -14 7 -31 16 -38 13 -10 16 -33 18 -117 3 -161 12 -275
24 -306 13 -36 19 -167 8 -185 -4 -7 -4 -18 1 -24 5 -6 11 -42 13 -80 l3 -70
2 80 c0 44 1 146 1 227 1 108 5 150 14 160 18 17 10 43 -8 28 -9 -8 -11 -4 -7
16 4 20 2 25 -8 19 -9 -6 -11 -4 -6 4 5 7 14 10 21 7 7 -2 16 1 19 9 3 8 0 16
-7 18 -9 3 -9 8 1 19 17 21 -3 35 -23 18 -11 -9 -15 -9 -15 -1 0 6 8 15 18 18
20 8 62 50 62 64 0 5 5 9 10 9 6 0 10 6 10 14 0 8 15 17 34 20 28 5 46 21 46
42 0 9 -67 -10 -84 -25 -10 -9 -27 -36 -37 -60 -13 -30 -24 -41 -34 -37 -8 3
-21 -4 -30 -17 -11 -15 -15 -17 -15 -6 0 8 4 19 10 25 6 6 6 21 -3 43 -11 30
-10 34 10 51 19 15 20 19 7 24 -8 3 -12 10 -9 16 3 6 -4 10 -17 11 -22 0 -22
1 -3 9 19 8 19 9 -2 9 -12 1 -25 5 -28 11 -4 6 1 7 12 4 15 -5 16 -4 3 5 -22
16 -27 14 -27 -14z"/>
<path d="M1265 2322 c-7 -8 -13 -9 -47 -11 -19 -1 -20 -3 -8 -15 19 -18 146
-34 136 -17 -13 20 12 12 43 -15 29 -24 31 -24 38 -7 3 10 8 21 10 25 2 4 -1
10 -7 13 -6 4 -9 1 -8 -6 5 -21 -20 -21 -42 1 -14 14 -28 19 -41 15 -12 -4
-19 -2 -19 7 0 11 -2 11 -9 0 -7 -11 -11 -11 -23 2 -9 8 -19 12 -23 8z"/>
<path d="M1469 2287 c7 -9 22 -17 33 -17 12 0 17 -4 12 -12 -5 -10 -4 -10 6
-1 15 14 4 35 -18 31 -10 -1 -24 2 -32 7 -13 8 -13 7 -1 -8z"/>
<path d="M1781 2291 c-9 -6 -10 -11 -2 -15 15 -10 53 3 46 15 -8 11 -26 11
-44 0z"/>
<path d="M1804 2251 c4 -6 14 -11 22 -11 8 0 13 -4 9 -9 -3 -5 4 -11 16 -13
28 -4 75 -63 58 -74 -8 -5 -9 -3 -4 6 5 9 4 11 -3 6 -9 -5 -9 -13 0 -29 7 -12
11 -25 10 -29 -1 -5 3 -8 9 -8 5 0 8 -4 5 -9 -3 -4 3 -16 14 -26 14 -13 17
-22 10 -35 -6 -12 -5 -23 5 -36 8 -11 15 -14 15 -9 0 6 -6 17 -12 24 -11 11
-10 13 4 8 17 -6 19 8 5 31 -5 6 -5 18 -1 25 4 6 3 9 -1 4 -9 -8 -40 71 -31
80 3 3 12 -2 21 -11 23 -23 41 -9 19 15 -9 10 -21 16 -26 13 -11 -7 -40 15
-33 26 3 4 -12 19 -33 33 -43 29 -88 45 -78 28z"/>
<path d="M2043 2038 c3 -10 1 -16 -3 -13 -9 6 -30 -26 -30 -44 0 -6 7 -11 15
-11 8 0 15 -6 15 -14 0 -8 4 -17 8 -20 5 -3 8 9 9 27 0 18 3 46 7 63 6 25 5
31 -9 31 -11 0 -15 -6 -12 -19z"/>
<path d="M1303 1968 c15 -5 25 -13 23 -16 -2 -4 15 -8 38 -9 l41 -2 -55 19
c-30 11 -59 19 -65 19 -5 0 2 -5 18 -11z"/>
<path d="M1565 1973 c-11 -3 -24 -10 -30 -15 -7 -8 -6 -9 2 -4 7 4 22 2 33 -4
11 -6 20 -7 20 -2 0 5 10 14 23 20 l22 11 -25 -1 c-14 0 -34 -2 -45 -5z"/>
<path d="M2003 1938 c-7 -16 -7 -30 0 -46 7 -16 7 -26 -1 -34 -9 -9 -12 -7
-12 11 0 12 -4 19 -10 16 -5 -3 -10 3 -10 14 0 26 -10 51 -21 51 -5 0 -4 -11
1 -24 5 -13 6 -27 3 -30 -3 -3 -1 -11 5 -19 6 -7 7 -18 3 -26 -10 -16 -6 -225
5 -242 4 -8 3 -9 -4 -5 -8 5 -12 -4 -12 -28 0 -19 5 -38 10 -41 6 -4 8 -10 5
-15 -3 -5 0 -22 8 -37 28 -56 17 -207 -20 -266 -3 -5 -7 -42 -10 -82 -4 -67
-2 -74 24 -106 43 -52 74 -76 130 -103 59 -29 67 -38 59 -72 -8 -30 -150 -181
-179 -190 -32 -10 -100 -55 -93 -61 9 -9 138 72 192 120 27 25 59 61 69 81 11
20 23 36 27 36 5 0 8 18 8 40 0 40 -4 44 -61 54 -30 5 -77 36 -112 75 -36 40
-37 43 -37 119 0 43 7 96 16 121 8 24 17 73 20 109 5 57 10 71 40 104 19 21
34 43 34 49 0 6 11 35 26 66 35 78 67 218 59 261 -9 48 -53 91 -87 85 -20 -4
-30 1 -40 16 -16 27 -22 26 -35 -1z m127 -74 c16 -33 21 -55 16 -83 -12 -77
-91 -280 -120 -309 -32 -32 -41 -1 -41 146 1 153 6 227 16 211 3 -6 9 1 13 15
8 33 44 66 72 66 16 0 28 -12 44 -46z"/>
<path d="M2094 1854 c3 -9 6 -48 7 -87 l1 -72 14 55 c14 57 5 120 -18 120 -6
0 -7 -7 -4 -16z"/>
<path d="M2005 1750 c-4 -12 0 -31 9 -44 8 -13 11 -27 6 -32 -4 -5 -11 -25
-15 -44 -7 -32 -6 -33 9 -21 9 8 15 20 12 28 -3 8 2 13 13 13 18 0 31 18 31
44 0 7 -11 18 -25 24 -15 7 -22 17 -19 26 3 8 1 17 -5 20 -5 4 -13 -3 -16 -14z"/>
<path d="M927 1883 c-11 -29 0 -116 23 -188 29 -90 53 -215 52 -261 -2 -30 2
-41 13 -41 8 0 11 5 8 11 -4 5 -6 29 -4 53 1 24 -2 43 -7 43 -8 0 -23 90 -26
162 0 14 -4 24 -7 22 -8 -4 -14 25 -32 141 -9 58 -15 74 -20 58z"/>
<path d="M1128 1837 c-30 -11 -32 -16 -20 -32 8 -12 242 -8 242 4 0 11 -121
31 -146 25 -12 -3 -25 -1 -28 5 -8 13 -12 13 -48 -2z"/>
<path d="M1650 1828 c-52 -4 -103 -7 -112 -8 -10 -1 -18 -4 -18 -8 0 -17 257
-18 274 -1 15 14 -59 23 -144 17z"/>
<path d="M1245 1769 c-16 -6 -43 -11 -60 -13 -16 -1 -29 -7 -28 -13 1 -6 -7
-9 -20 -6 -21 4 -21 4 -3 -8 14 -8 28 -9 52 -1 20 6 34 6 34 1 0 -5 18 -9 39
-9 29 0 41 5 44 18 4 14 6 14 12 -5 4 -13 15 -23 26 -23 24 0 24 12 2 38 -22
26 -59 34 -98 21z"/>
<path d="M1553 1749 c-38 -24 -41 -34 -14 -48 13 -7 24 -6 37 4 11 8 15 15 9
15 -11 0 15 20 28 20 4 0 7 -7 7 -15 0 -11 11 -15 43 -14 32 0 37 2 22 9 -18
7 -18 8 -3 15 11 4 24 1 33 -9 9 -9 20 -16 25 -16 5 0 17 -3 27 -7 17 -6 17
-5 -2 18 -11 13 -13 18 -5 12 8 -7 23 -13 35 -13 16 1 14 4 -10 14 -16 7 -34
11 -38 9 -5 -3 -20 0 -35 5 -15 6 -49 13 -77 16 -40 5 -56 2 -82 -15z"/>
<path d="M1440 1691 c-6 -12 -7 -28 -1 -43 l9 -23 5 25 c6 26 6 60 1 60 -2 0
-8 -9 -14 -19z"/>
<path d="M1303 1693 c-28 -10 -12 -24 18 -18 22 5 29 4 25 -4 -4 -7 1 -11 12
-11 11 0 23 7 26 16 4 12 2 15 -9 10 -8 -3 -25 -2 -38 3 -12 4 -28 6 -34 4z"/>
<path d="M1525 1680 c-8 -12 3 -31 27 -48 16 -12 17 -16 6 -29 -12 -14 -8 -15
34 -9 29 4 49 3 53 -4 3 -5 11 -10 18 -10 6 0 1 7 -12 16 -13 9 -34 17 -47 17
-13 0 -21 3 -19 7 3 5 0 10 -7 12 -6 2 -9 12 -5 21 4 10 12 14 22 11 8 -4 15
-1 15 6 0 8 -11 11 -30 8 -16 -3 -30 -1 -30 4 0 11 -18 10 -25 -2z"/>
<path d="M1525 1529 c-8 -25 -3 -31 19 -23 20 8 21 44 2 44 -8 0 -18 -9 -21
-21z"/>
<path d="M1604 1533 c-1 -10 -5 -27 -9 -38 -8 -20 -8 -20 13 -1 20 17 24 18
40 4 9 -9 27 -21 39 -27 38 -19 17 10 -32 47 -52 37 -51 37 -51 15z"/>
<path d="M1243 1505 c-23 -19 -46 -35 -52 -35 -6 0 -11 -5 -11 -12 0 -6 -12
-27 -26 -45 -29 -38 -28 -80 1 -109 8 -9 15 -24 15 -34 0 -10 5 -22 10 -25 6
-4 8 -16 4 -27 -4 -12 -2 -18 4 -14 5 3 12 17 14 31 3 13 1 22 -3 19 -5 -3 -9
8 -9 25 0 16 -3 36 -6 45 -10 25 24 19 75 -13 56 -35 87 -45 96 -31 3 5 -2 10
-14 10 -11 0 -28 11 -39 25 -12 15 -30 25 -45 25 -14 0 -27 6 -29 12 -4 10
-10 10 -30 1 -14 -6 -29 -8 -35 -5 -13 9 -8 44 9 57 28 22 121 125 116 130 -2
3 -23 -11 -45 -30z"/>
<path d="M1345 1449 c-4 -6 -13 -8 -21 -5 -8 3 -14 3 -14 0 0 -2 11 -9 25 -14
27 -10 34 -40 10 -40 -8 0 -15 7 -15 17 0 14 -2 14 -20 -2 -11 -10 -20 -13
-20 -7 0 7 5 12 11 12 5 0 7 5 4 10 -9 15 -25 2 -25 -21 0 -14 7 -19 28 -20
15 -1 34 -2 42 -3 8 0 21 6 28 14 10 13 11 13 6 -2 -4 -13 2 -18 30 -24 44 -8
103 2 109 19 4 9 6 9 6 0 1 -21 28 -15 47 10 11 14 14 16 11 5 -8 -23 8 -32
23 -13 7 8 20 15 28 15 13 0 14 2 3 13 -10 10 -15 8 -26 -7 -14 -18 -14 -18
-13 5 1 38 -1 49 -13 49 -5 0 -7 -5 -3 -11 4 -8 0 -9 -15 -4 -23 7 -28 -4 -8
-24 10 -10 9 -12 -3 -10 -8 1 -41 -1 -72 -5 -60 -9 -81 -2 -121 38 -10 11 -18
13 -22 5z"/>
<path d="M1702 1433 c-18 -7 16 -32 45 -33 16 0 25 -8 29 -25 8 -31 27 -33 22
-3 -2 12 -18 33 -37 45 -35 24 -38 25 -59 16z"/>
<path d="M10 1368 c0 -83 27 -220 65 -336 110 -328 314 -595 600 -784 164
-109 332 -179 525 -218 110 -23 140 -25 140 -10 0 6 -10 8 -24 4 -18 -4 -25
-1 -29 15 -5 20 -21 22 -44 8 -8 -5 -13 -3 -13 3 0 6 -4 9 -8 6 -5 -3 -39 2
-76 11 -51 11 -70 20 -73 34 -5 17 -7 18 -17 4 -10 -13 -14 -13 -40 0 -15 8
-32 13 -36 10 -5 -3 -14 0 -22 7 -7 7 -20 14 -28 16 -8 2 -18 8 -21 14 -4 6
-8 6 -11 -3 -3 -9 -10 -7 -26 9 -16 16 -20 32 -19 65 1 26 -2 43 -7 39 -6 -3
-6 3 -2 14 8 19 19 80 18 99 -2 36 -11 84 -20 105 -11 27 -80 100 -94 100 -5
0 -7 3 -5 7 3 5 -1 14 -9 21 -8 7 -14 10 -14 6 0 -8 41 -76 50 -84 3 -3 17
-23 30 -45 21 -36 23 -52 24 -165 l1 -125 -27 0 c-17 -1 -28 4 -28 12 0 7 -4
13 -10 13 -5 0 -10 11 -10 24 0 34 -11 86 -19 86 -4 0 -8 -15 -9 -32 -2 -18
-6 -36 -10 -40 -9 -8 -72 47 -72 64 0 10 -2 10 -9 0 -7 -11 -13 -9 -30 10 -12
12 -27 23 -33 23 -7 0 -26 48 -44 107 -17 60 -30 108 -28 108 3 0 -1 6 -8 14
-23 24 -27 8 -12 -47 8 -28 16 -57 18 -64 1 -7 5 -16 9 -19 11 -11 8 -46 -3
-39 -6 4 -7 12 -3 18 4 7 -1 6 -10 -2 -10 -8 -19 -12 -20 -10 -11 18 -40 86
-39 92 1 4 -3 7 -9 7 -5 0 -7 5 -3 11 4 7 1 10 -7 7 -21 -8 -51 11 -45 28 4
10 -2 14 -22 14 l-27 1 39 36 c22 20 31 33 20 28 -43 -18 -57 -11 -100 50
-101 145 -183 354 -229 585 -14 74 -28 137 -31 139 -2 2 -4 -21 -4 -51z"/>
<path d="M2968 1350 c-9 -41 -24 -111 -34 -155 -22 -109 -57 -212 -106 -317
-44 -95 -50 -99 -111 -73 -21 8 -62 14 -94 13 l-58 -1 60 -6 c64 -7 108 -26
139 -60 19 -21 19 -21 -8 -42 -14 -11 -26 -27 -26 -35 0 -8 -13 -20 -29 -25
-15 -6 -34 -20 -40 -32 -22 -40 -37 -65 -50 -80 -7 -9 -16 -28 -20 -44 l-9
-28 -10 25 c-9 22 -11 22 -11 5 -1 -11 -8 -31 -17 -44 -13 -17 -22 -21 -43
-16 -19 4 -22 3 -11 -5 13 -8 12 -10 -3 -10 -10 0 -16 -4 -13 -8 7 -12 -49
-64 -59 -55 -4 5 -4 2 0 -6 6 -11 4 -13 -8 -8 -10 4 -16 2 -14 -6 1 -6 -18
-22 -43 -34 -24 -13 -40 -23 -35 -23 11 0 -44 -38 -96 -68 -19 -10 -45 -17
-59 -15 -17 2 -21 0 -11 -6 10 -7 8 -12 -10 -25 -13 -9 -29 -16 -36 -16 -7 0
-13 -4 -13 -8 0 -5 -16 -9 -36 -10 -20 -1 -45 -9 -55 -18 -11 -10 -19 -14 -19
-9 0 4 -6 2 -14 -4 -11 -9 -15 -9 -19 1 -4 9 -6 8 -6 -3 -1 -9 -7 -16 -13 -17
-28 -4 -54 -10 -68 -16 -8 -3 -29 -8 -46 -10 -17 -1 -36 -6 -41 -9 -6 -4 -29
-9 -53 -12 -23 -3 -47 -8 -52 -11 -6 -4 -14 0 -19 7 -7 11 -9 10 -9 -3 0 -24
36 -23 160 2 112 23 276 78 364 122 223 112 449 309 580 507 142 214 254 541
244 713 l-3 53 -17 -75z"/>
<path d="M1006 1371 c-5 -8 -4 -16 5 -21 7 -5 14 -16 15 -25 4 -28 12 -28 12
0 0 14 -4 25 -9 25 -4 0 -9 8 -11 18 -3 13 -5 14 -12 3z"/>
<path d="M1691 1346 c-47 -8 -91 -33 -91 -52 0 -7 36 4 84 27 21 10 43 16 48
13 12 -7 1 -42 -25 -78 -12 -16 -16 -27 -10 -23 15 9 44 -3 37 -15 -3 -5 3 -4
13 3 15 9 19 21 17 55 -1 31 3 47 13 53 9 4 12 10 7 13 -23 12 -43 13 -93 4z"/>
<path d="M1370 1328 c45 -11 151 -11 161 -1 4 4 -38 8 -94 9 -74 0 -93 -2 -67
-8z"/>
<path d="M1037 1277 c4 -7 8 -16 10 -22 1 -5 5 -21 9 -34 5 -16 4 -22 -3 -18
-7 5 -9 -1 -5 -15 5 -19 7 -20 10 -5 3 16 6 16 24 -5 11 -13 24 -30 28 -38 5
-8 12 -11 16 -7 4 4 -4 20 -18 35 -33 35 -46 61 -43 89 1 14 -5 23 -17 26 -12
4 -16 1 -11 -6z"/>
<path d="M1400 1280 c8 -5 33 -9 55 -9 35 1 37 2 15 9 -14 4 -38 8 -55 9 -23
0 -26 -2 -15 -9z"/>
<path d="M1830 1250 c-7 -16 -16 -30 -21 -30 -5 0 -9 -7 -9 -15 0 -26 26 -5
39 31 16 44 8 56 -9 14z"/>
<path d="M1578 1235 c-2 -3 -57 -5 -121 -6 -81 0 -119 -5 -127 -14 -8 -10 1
-12 47 -12 32 0 69 -3 82 -8 14 -4 21 -3 18 2 -3 5 6 8 21 7 36 -2 110 20 96
29 -6 3 -13 4 -16 2z"/>
<path d="M1693 1220 c-13 -5 -23 -16 -23 -25 0 -8 -6 -15 -14 -15 -8 0 -18 -9
-21 -20 -4 -12 -16 -20 -28 -21 -12 0 -16 -3 -9 -6 6 -2 12 -9 12 -14 0 -4 -7
-6 -16 -2 -22 8 -68 -18 -52 -30 10 -7 10 -10 0 -14 -6 -2 -10 -9 -6 -14 10
-17 20 -9 22 18 3 35 7 38 34 25 l23 -11 -22 0 c-13 -1 -23 -5 -23 -11 0 -5 7
-7 15 -4 9 4 18 -1 21 -11 9 -23 26 3 18 28 -3 9 -1 17 5 17 6 0 8 6 5 14 -3
8 -1 17 5 21 6 3 11 -1 11 -9 0 -9 5 -16 10 -16 6 0 8 11 6 25 -3 18 4 33 25
55 17 16 29 30 27 29 -2 0 -13 -4 -25 -9z"/>
<path d="M1206 1203 c-4 -10 -4 -14 0 -10 9 9 75 -64 68 -75 -3 -4 1 -8 9 -8
10 0 13 7 10 20 -3 11 -12 20 -20 20 -13 0 -13 3 -2 18 7 9 10 14 5 10 -4 -4
-18 4 -31 18 -27 29 -31 29 -39 7z"/>
<path d="M1738 1203 c-10 -2 -18 -11 -18 -19 0 -23 -2 -28 -19 -41 -14 -11
-14 -12 2 -13 23 0 33 -26 17 -45 -16 -19 -3 -20 15 -1 12 11 11 17 -2 36 -15
21 -15 24 1 35 13 10 14 14 4 18 -9 3 -8 9 7 21 21 16 21 16 -7 9z"/>
<path d="M1881 1170 c3 -37 -3 -48 -41 -65 -22 -10 -37 -21 -35 -26 3 -4 -14
-21 -37 -38 -23 -17 -37 -31 -31 -31 5 0 28 13 49 28 42 31 146 127 127 118
-6 -4 -17 2 -23 11 -8 13 -10 14 -9 3z"/>
<path d="M1443 1150 c16 -5 38 -5 50 0 17 7 10 9 -28 9 -43 -1 -46 -2 -22 -9z"/>
<path d="M1216 1078 c20 -35 50 -75 67 -90 21 -19 26 -28 16 -28 -9 0 -32 18
-53 40 -20 22 -42 40 -49 40 -7 0 7 -17 31 -37 24 -20 48 -47 53 -60 5 -14 19
-27 30 -30 12 -3 16 -9 10 -12 -6 -4 -1 -12 12 -20 20 -13 21 -13 8 2 -7 10
-10 17 -5 17 4 0 -2 9 -14 20 -12 12 -22 22 -22 24 0 7 45 -7 59 -18 8 -6 55
-11 115 -10 94 1 106 3 169 34 37 19 67 38 67 43 0 5 -6 4 -13 -2 -8 -6 -17
-8 -20 -4 -4 3 -7 1 -7 -5 0 -7 -6 -12 -14 -12 -8 0 -16 -4 -18 -9 -1 -4 -14
-12 -27 -16 -16 -5 -21 -4 -17 4 4 6 13 11 20 11 16 0 66 52 66 69 0 7 4 10 9
7 5 -3 11 0 14 7 3 8 -1 14 -9 14 -8 0 -14 -4 -14 -9 0 -4 -15 -15 -32 -23
-20 -9 -24 -14 -11 -11 16 3 20 0 16 -11 -3 -8 -12 -12 -19 -9 -8 3 -14 2 -14
-2 0 -24 -110 -65 -131 -50 -11 8 -10 9 4 4 10 -3 16 -2 13 3 -3 5 -15 11 -27
14 -14 4 -19 2 -15 -8 5 -14 -14 -25 -46 -25 -32 0 -84 29 -120 67 -18 19 -42
44 -52 56 -10 11 -19 32 -20 47 -1 18 -6 26 -13 23 -7 -3 -13 0 -13 6 0 6 -4
11 -10 11 -5 0 7 -28 26 -62z"/>
<path d="M1306 1104 c-10 -14 -15 -31 -12 -37 2 -7 5 -4 5 6 1 9 8 17 17 17 8
0 13 -4 10 -9 -3 -5 2 -15 12 -22 15 -13 16 -12 4 3 -19 24 3 33 33 14 17 -11
22 -22 18 -34 -6 -15 -3 -15 18 3 13 11 26 22 29 24 3 2 -5 1 -16 -3 -16 -5
-27 0 -41 18 -11 13 -28 24 -39 23 -10 -1 -18 4 -16 11 3 19 -4 14 -22 -14z"/>
<path d="M1160 1003 c0 -47 8 -73 22 -73 11 0 0 90 -13 105 -5 5 -9 -8 -9 -32z"/>
<path d="M2226 910 c32 -33 102 -56 118 -40 7 7 2 10 -11 10 -11 0 -47 14 -79
31 l-59 31 31 -32z"/>
<path d="M1152 903 c-24 -12 -30 -19 -22 -27 8 -8 13 -7 20 4 7 10 8 0 4 -31
-8 -60 17 -144 56 -186 16 -18 32 -33 34 -33 3 0 25 -14 50 -30 58 -40 141
-75 191 -83 37 -6 38 -5 21 8 -11 8 -29 15 -40 15 -69 0 -254 117 -276 174
-11 30 -14 114 -5 148 4 14 5 33 3 42 -3 14 -7 13 -36 -1z"/>
<path d="M1082 884 c-12 -8 -22 -21 -22 -29 0 -8 -6 -12 -14 -9 -8 3 -17 1
-21 -5 -3 -7 0 -8 9 -5 13 5 16 -2 16 -34 0 -22 3 -54 7 -72 5 -26 3 -31 -7
-25 -9 5 -11 4 -6 -4 4 -6 12 -9 17 -6 5 4 9 2 9 -3 0 -5 13 -29 29 -53 16
-24 27 -47 25 -51 -3 -5 -2 -7 3 -6 5 2 21 -7 36 -19 17 -13 23 -23 15 -25 -8
-3 -7 -6 4 -10 27 -11 15 15 -29 60 -80 82 -119 216 -76 258 17 16 38 54 30
54 -1 0 -13 -7 -25 -16z"/>
<path d="M2357 866 c-4 -9 -3 -17 1 -20 13 -7 153 -28 158 -23 3 2 -23 10 -57
16 -34 6 -70 18 -79 26 -16 14 -18 14 -23 1z"/>
<path d="M2611 715 c-28 -29 -38 -45 -28 -45 14 0 14 -5 3 -47 -22 -77 -25
-93 -15 -87 5 3 9 13 9 23 0 32 41 143 61 164 16 18 25 38 17 37 -2 0 -23 -21
-47 -45z"/>
<path d="M2184 709 c-10 -12 -45 -39 -76 -61 -32 -21 -58 -41 -58 -44 0 -6
104 66 139 96 13 11 22 23 19 25 -3 3 -13 -4 -24 -16z"/>
<path d="M750 661 c0 -6 10 -16 23 -22 12 -7 25 -17 29 -23 5 -8 8 -7 8 2 0
19 20 14 20 -5 0 -14 2 -15 9 -4 5 8 17 11 32 7 19 -6 21 -5 7 4 -9 5 -30 11
-46 13 -17 2 -42 11 -56 21 -14 9 -26 12 -26 7z"/>
<path d="M680 645 c0 -10 10 -15 30 -15 17 0 30 5 30 11 0 6 -9 8 -21 4 -15
-5 -19 -4 -15 4 4 6 0 11 -8 11 -9 0 -16 -7 -16 -15z"/>
<path d="M2553 646 c3 -8 -5 -24 -19 -37 -25 -24 -31 -39 -14 -39 6 0 9 3 8 8
-2 4 9 21 25 37 31 34 34 45 11 45 -10 0 -14 -6 -11 -14z"/>
<path d="M1050 606 c-13 -25 -20 -49 -17 -53 4 -3 7 -1 7 5 0 7 7 12 15 12 8
0 15 9 15 19 0 11 5 21 12 23 8 3 8 9 1 22 -9 16 -13 13 -33 -28z"/>
<path d="M975 590 c-7 -11 -14 -70 -9 -70 1 0 9 13 17 29 14 29 7 66 -8 41z"/>
<path d="M1800 585 c-14 -8 -37 -14 -51 -15 -26 0 -75 -29 -51 -30 25 0 111
32 123 46 14 17 11 17 -21 -1z"/>
<path d="M1250 515 c0 -7 101 -57 106 -53 2 2 -21 16 -51 31 -30 15 -55 25
-55 22z"/>
<path d="M1393 72 c4 -15 -1 -30 -14 -43 -19 -19 -19 -19 14 -19 22 0 28 3 18
9 -7 5 -11 17 -7 27 3 11 1 26 -5 34 -9 12 -10 10 -6 -8z"/>
</g>
</svg>
